<svg width="43" height="35" viewBox="0 0 43 35" fill="none" xmlns="http://www.w3.org/2000/svg">
<path d="M34.4563 24.9953H33.9693C31.6936 24.9953 29.5272 24.0886 28.0276 22.5054L23.4783 17.7036L28.0276 12.9018C29.5272 11.3185 31.6936 10.4119 33.9693 10.4119H34.4563V15.2729L42.3509 7.98109L34.4563 0.689697V5.55078H33.9693C30.1761 5.55078 26.5666 7.06272 24.0674 9.7022L11.9374 22.5054C10.4378 24.0885 8.27138 24.9953 5.99573 24.9953H0.245605V29.8563H5.99581C9.78896 29.8563 13.3984 28.3443 15.8977 25.7049L19.9826 21.3933L24.0675 25.7049C26.5667 28.3443 30.1761 29.8563 33.9693 29.8563H34.4563V34.7174L42.351 27.4259L34.4563 20.1342V24.9953Z" fill="white"/>
</svg>
