<svg width="44" height="38" viewBox="0 0 44 38" fill="none" xmlns="http://www.w3.org/2000/svg">
<path d="M22.0001 36.6L21.293 37.3071C21.4806 37.4947 21.7349 37.6 22.0001 37.6C22.2653 37.6 22.5197 37.4947 22.7072 37.3071L22.0001 36.6ZM4.50436 19.1043L3.79725 19.8114H3.79725L4.50436 19.1043ZM19.171 4.43759L18.4639 5.1447V5.1447L19.171 4.43759ZM22.0001 7.26669L21.293 7.9738C21.4806 8.16133 21.7349 8.26669 22.0001 8.26669C22.2653 8.26669 22.5197 8.16133 22.7072 7.9738L22.0001 7.26669ZM24.8292 4.43759L24.1221 3.73048V3.73048L24.8292 4.43759ZM22.7072 35.8929L5.21147 18.3971L3.79725 19.8114L21.293 37.3071L22.7072 35.8929ZM38.7888 18.3972L21.293 35.8929L22.7072 37.3071L40.203 19.8114L38.7888 18.3972ZM18.4639 5.1447L21.293 7.9738L22.7072 6.55958L19.8781 3.73048L18.4639 5.1447ZM22.7072 7.9738L25.5363 5.1447L24.1221 3.73048L21.293 6.55958L22.7072 7.9738ZM32.1626 0.400024C29.1468 0.400024 26.2546 1.59803 24.1221 3.73048L25.5363 5.1447C27.2937 3.38731 29.6772 2.40002 32.1626 2.40002V0.400024ZM41.5335 11.7709C41.5335 14.2562 40.5462 16.6398 38.7888 18.3972L40.203 19.8114C42.3355 17.6789 43.5335 14.7867 43.5335 11.7709H41.5335ZM43.5335 11.7709C43.5335 5.49095 38.4425 0.400024 32.1626 0.400024V2.40002C37.338 2.40002 41.5335 6.59552 41.5335 11.7709H43.5335ZM11.8377 2.40002C14.323 2.40002 16.7065 3.38731 18.4639 5.1447L19.8781 3.73048C17.7457 1.59803 14.8534 0.400024 11.8377 0.400024V2.40002ZM2.4668 11.7709C2.4668 6.59552 6.66229 2.40002 11.8377 2.40002V0.400024C5.55772 0.400024 0.466797 5.49095 0.466797 11.7709H2.4668ZM5.21147 18.3971C3.45408 16.6398 2.4668 14.2562 2.4668 11.7709H0.466797C0.466797 14.7867 1.66479 17.6789 3.79725 19.8114L5.21147 18.3971Z" fill="#F4F7FF"/>
</svg>
